<?xml version="1.0" encoding="utf-8"?>
<!-- Generator: Adobe Illustrator 25.0.0, SVG Export Plug-In . SVG Version: 6.00 Build 0)  -->
<svg version="1.1" id="Capa_1" xmlns="http://www.w3.org/2000/svg" xmlns:xlink="http://www.w3.org/1999/xlink" x="0px" y="0px"
	 viewBox="0 0 103.6 32" style="enable-background:new 0 0 103.6 32;" xml:space="preserve">
<style type="text/css">
	.st0{fill:#ED263F;}
</style>
<g transform="matrix(1,0,0,1,-3587.6,-232.9)">
	<g transform="matrix(1,0,0,1,3373.24,0)">
		<g transform="matrix(1,0,0,1,-3373.24,0)">
			<path class="st0" d="M3617.4,245L3617.4,245c-0.3-0.8-0.6-1.7-1.1-2.5c0.2-0.6,0.3-1.2,0.3-1.8h0.8c0.1,0.2,0.3,0.3,0.5,0.3
				c0.3,0,0.6-0.3,0.6-0.6s-0.3-0.6-0.6-0.6c-0.2,0-0.4,0.1-0.5,0.3h-0.8c-0.1-1.1-0.6-2.1-1.4-2.9c-0.8-0.8-1.9-1.3-3.1-1.4v-0.9
				c0.2-0.1,0.3-0.3,0.3-0.5c0-0.3-0.3-0.6-0.6-0.6s-0.6,0.3-0.6,0.6c0,0.2,0.1,0.4,0.3,0.5v0.9c-0.6,0-1.1,0.1-1.6,0.3
				c-0.4-0.2-0.9-0.5-1.4-0.7c0,0-0.1,0-0.1-0.1l0,0c-5.6-2.3-12.1-1.3-16.5,3.1c-4.9,4.9-5.6,12.4-2.2,18.3l0,0
				c0,0.1,0.1,0.1,0.1,0.2s0.1,0.2,0.2,0.3c0.1,0.2,0.3,0.4,0.4,0.7l0,0l0,0c0.4-0.1,0.8-0.2,1.2-0.4c0.1,0.2,0.2,0.3,0.3,0.5
				c0.9,1,1.7,1.9,2.7,2.7l-0.4,1.2c6.1,4.3,14.3,3.8,19.6-1.4C3618.1,256.4,3619.3,250.4,3617.4,245z M3662.2,250.3
				c0,0.7,0.3,1.2,0.9,1.6c0.6,0.4,1.3,0.7,2.2,0.9s1.8,0.4,2.8,0.6c1,0.2,1.9,0.5,2.8,0.9c0.9,0.4,1.6,0.9,2.2,1.6
				c0.6,0.7,0.9,1.6,0.9,2.8c0,1-0.2,1.8-0.6,2.5c-0.4,0.7-1,1.3-1.6,1.8c-0.7,0.5-1.4,0.8-2.3,1.1c-0.9,0.2-1.8,0.3-2.7,0.3
				c-1,0-1.9-0.1-2.9-0.4c-0.9-0.3-1.8-0.7-2.6-1.2s-1.4-1.2-1.8-1.9c-0.5-0.8-0.7-1.7-0.7-2.7c0-0.1,0-0.2,0-0.3c0-0.1,0-0.3,0-0.5
				h3.1c0,0.1,0,0.2,0,0.3v0.3c0,0.6,0.1,1.1,0.4,1.5c0.3,0.4,0.7,0.8,1.1,1.1c0.5,0.3,1,0.5,1.6,0.6s1.2,0.2,1.8,0.2
				c0.5,0,1-0.1,1.5-0.2s0.9-0.3,1.3-0.5c0.4-0.2,0.7-0.5,0.9-0.8s0.3-0.7,0.3-1.1c0-0.7-0.3-1.2-0.9-1.5c-0.6-0.3-1.3-0.6-2.1-0.8
				c-0.9-0.2-1.8-0.4-2.8-0.6c-1-0.2-1.9-0.5-2.8-0.9c-0.9-0.4-1.6-1-2.1-1.6c-0.6-0.7-0.9-1.6-0.9-2.9c0-0.9,0.2-1.7,0.5-2.4
				c0.4-0.7,0.9-1.3,1.5-1.7c0.6-0.5,1.3-0.8,2.1-1s1.6-0.3,2.5-0.3s1.8,0.1,2.7,0.4c0.9,0.3,1.7,0.7,2.4,1.2s1.3,1.2,1.7,2
				s0.6,1.7,0.6,2.8v0.6h-3c0-0.1,0-0.2,0.1-0.4c0-0.1,0-0.2,0-0.4c0-0.5-0.1-1-0.4-1.4c-0.2-0.4-0.6-0.8-1-1.1s-0.9-0.5-1.4-0.6
				s-1.1-0.2-1.6-0.2c-1,0-1.9,0.2-2.6,0.7C3662.6,249,3662.2,249.6,3662.2,250.3z M3657.5,256.5v2.7c0,0.9,0,1.7,0,2.4
				c0,0.7,0,1.3,0,1.7v0.7h-3.4v-2c-0.7,0.9-1.6,1.5-2.6,1.8c-1,0.4-2,0.5-3.1,0.5c-0.9,0-1.7-0.1-2.6-0.4c-0.9-0.3-1.6-0.6-2.3-1.2
				c-0.7-0.5-1.2-1.2-1.6-1.9c-0.4-0.8-0.6-1.7-0.6-2.7s0.2-1.9,0.5-2.7c0.4-0.8,0.8-1.4,1.5-1.8c0.6-0.5,1.4-0.8,2.2-1
				s1.8-0.3,2.8-0.3c0.9,0,1.8,0.1,2.8,0.2c1,0.1,2,0.4,3,0.7v-0.1c0-0.2,0.1-0.4,0.1-0.5v-0.5c0-0.7-0.1-1.2-0.4-1.7
				c-0.3-0.5-0.6-0.9-1-1.2s-0.9-0.6-1.4-0.7c-0.5-0.2-1.1-0.2-1.6-0.2s-1.1,0.1-1.6,0.2c-0.5,0.1-1,0.3-1.4,0.6s-0.8,0.6-1,1
				c-0.3,0.4-0.4,0.9-0.4,1.4h-3.4c0.1-1.1,0.3-2,0.8-2.8s1-1.5,1.7-2s1.5-0.9,2.4-1.2s1.8-0.4,2.7-0.4c1.1,0,2.1,0.1,3,0.4
				c0.9,0.3,1.8,0.8,2.5,1.4c0.7,0.6,1.3,1.4,1.7,2.4s0.7,2.2,0.7,3.6v0.2L3657.5,256.5z M3691.2,256.5v2.7c0,0.9,0,1.7,0,2.4
				c0,0.7,0,1.3,0,1.7v0.7h-3.4v-2c-0.7,0.9-1.6,1.5-2.6,1.8c-1,0.4-2,0.5-3.1,0.5c-0.9,0-1.7-0.1-2.6-0.4c-0.9-0.3-1.6-0.6-2.3-1.2
				c-0.7-0.5-1.2-1.2-1.6-1.9c-0.4-0.8-0.6-1.7-0.6-2.7s0.2-1.9,0.5-2.7c0.4-0.8,0.8-1.4,1.5-1.8c0.6-0.5,1.4-0.8,2.2-1
				s1.8-0.3,2.8-0.3c0.9,0,1.8,0.1,2.8,0.2c1,0.1,2,0.4,3,0.7v-0.1c0-0.2,0.1-0.4,0.1-0.5v-0.5c0-0.7-0.1-1.2-0.4-1.7
				c-0.3-0.5-0.6-0.9-1-1.2s-0.9-0.6-1.4-0.7c-0.5-0.2-1.1-0.2-1.6-0.2s-1.1,0.1-1.6,0.2c-0.5,0.1-1,0.3-1.4,0.6s-0.8,0.6-1,1
				c-0.3,0.4-0.4,0.9-0.4,1.4h-3.4c0.1-1.1,0.3-2,0.8-2.8s1-1.5,1.7-2s1.5-0.9,2.4-1.2s1.8-0.4,2.7-0.4c1.1,0,2.1,0.1,3,0.4
				c0.9,0.3,1.8,0.8,2.5,1.4c0.7,0.6,1.3,1.4,1.7,2.4s0.7,2.2,0.7,3.6v0.2L3691.2,256.5z M3640.1,257.9c-0.3,1-0.8,1.8-1.4,2.6
				c-0.6,0.8-1.3,1.5-2.1,2c-0.8,0.6-1.7,1-2.6,1.3c-1,0.3-2,0.5-3,0.5c-1.3,0-2.5-0.2-3.7-0.7s-2.2-1.2-3.1-2
				c-0.9-0.9-1.6-1.9-2.1-3c-0.5-1.2-0.8-2.4-0.8-3.7s0.3-2.5,0.8-3.7s1.2-2.2,2.1-3.1c0.9-0.9,1.9-1.6,3.1-2.1
				c1.2-0.5,2.4-0.8,3.8-0.8c1,0,2.1,0.2,3,0.5c1,0.3,1.8,0.8,2.6,1.4c0.8,0.6,1.5,1.3,2.1,2.1s1.1,1.7,1.5,2.7h-3.7
				c-0.5-1-1.3-1.8-2.3-2.4c-1-0.6-2.1-0.9-3.2-0.9c-0.8,0-1.6,0.2-2.4,0.5c-0.8,0.3-1.4,0.8-2,1.3c-0.6,0.6-1.1,1.2-1.4,2
				c-0.4,0.8-0.5,1.6-0.5,2.5c0,0.8,0.2,1.6,0.5,2.3c0.3,0.8,0.8,1.4,1.3,2c0.6,0.6,1.2,1,2,1.4c0.8,0.3,1.6,0.5,2.4,0.5
				c1.1,0,2.1-0.3,3.2-0.9c1-0.6,1.8-1.3,2.4-2.3H3640.1z M3596,261.6c1.1-3.4,2.9-6.6,5.3-9.4l-1-1c-2.8,2.4-6,4.2-9.4,5.3
				c-3.3-5.4-2.6-12.5,1.9-17c3.1-3.1,7.3-4.3,11.3-3.9l0,0c1.5,0.2,2.9,0.6,4.3,1.2c0,0,0,0,0.1,0s0.1,0.1,0.2,0.1
				c1.5,0.7,2.8,1.7,4,2.9c5.6,5.6,5.7,14.5,0.3,19.9C3608.5,264.2,3601.5,264.8,3596,261.6z M3654.2,256.6c-0.1,0-0.4,0-0.8-0.1
				c-0.4-0.1-0.8-0.2-1.3-0.3c-0.5-0.1-1-0.2-1.6-0.3c-0.6-0.1-1.1-0.1-1.7-0.1c-0.4,0-0.9,0-1.3,0.1c-0.5,0.1-0.9,0.2-1.3,0.5
				c-0.4,0.2-0.7,0.5-1,0.8s-0.4,0.8-0.4,1.3c0,0.4,0.1,0.8,0.3,1.1c0.2,0.3,0.5,0.6,0.9,0.9s0.8,0.5,1.4,0.6
				c0.5,0.1,1.1,0.2,1.6,0.2c0.7,0,1.3-0.1,1.9-0.3c0.6-0.2,1.2-0.5,1.6-0.9c0.5-0.3,0.9-0.7,1.1-1.1c0.3-0.4,0.4-0.7,0.5-1.1v-1.3
				H3654.2z M3687.8,256.6c-0.1,0-0.4,0-0.8-0.1c-0.4-0.1-0.8-0.2-1.3-0.3c-0.5-0.1-1-0.2-1.6-0.3c-0.6-0.1-1.1-0.1-1.7-0.1
				c-0.4,0-0.9,0-1.3,0.1c-0.5,0.1-0.9,0.2-1.3,0.5c-0.4,0.2-0.7,0.5-1,0.8s-0.4,0.8-0.4,1.3c0,0.4,0.1,0.8,0.3,1.1
				c0.2,0.3,0.5,0.6,0.9,0.9s0.8,0.5,1.4,0.6c0.5,0.1,1.1,0.2,1.6,0.2c0.7,0,1.3-0.1,1.9-0.3c0.6-0.2,1.2-0.5,1.6-0.9
				c0.5-0.3,0.9-0.7,1.1-1.1c0.3-0.4,0.4-0.7,0.5-1.1v-1.3H3687.8z M3606,254.7c-0.1,0.1-0.2,0.1-0.2,0.2c-0.1,0.1-0.2,0.2-0.2,0.3
				c-0.6,0.8-0.6,1.9,0,2.7c0.1,0.1,0.2,0.2,0.3,0.3c0.1,0.1,0.2,0.2,0.3,0.3c0.8,0.5,1.9,0.5,2.6,0c0.1-0.1,0.2-0.2,0.3-0.3
				c0.1-0.1,0.2-0.2,0.3-0.3c0.6-0.8,0.6-1.9-0.1-2.8c-0.1-0.1-0.1-0.2-0.2-0.2c-0.1-0.1-0.2-0.1-0.2-0.2
				C3608,254.1,3606.8,254.1,3606,254.7z M3609,249.3L3609,249.3L3609,249.3C3608.9,249.4,3608.9,249.4,3609,249.3
				c-0.8,0.9-0.9,2.1-0.3,3c0.1,0.1,0.2,0.3,0.3,0.4c0.1,0.1,0.2,0.2,0.3,0.3c0.8,0.6,2,0.5,2.8-0.1c0.1-0.1,0.1-0.1,0.2-0.2
				c0.1-0.1,0.1-0.2,0.2-0.2c0.6-0.9,0.6-2.1-0.1-2.9l-0.1-0.1l0,0l0,0C3611.3,248.4,3609.9,248.4,3609,249.3z M3594.3,243.3
				c-0.1,0.1-0.1,0.1-0.2,0.2c-0.1,0.1-0.1,0.1-0.2,0.2c-0.7,0.9-0.6,2.2,0.2,3l0,0l0,0c0.8,0.8,2,0.8,2.9,0.2
				c0.1-0.1,0.3-0.2,0.4-0.3c0.1-0.1,0.2-0.2,0.3-0.3c0.6-0.8,0.5-2-0.1-2.8c-0.1-0.1-0.1-0.1-0.2-0.2c-0.1-0.1-0.2-0.1-0.2-0.2
				C3596.3,242.6,3595.1,242.6,3594.3,243.3z M3599.9,240.3C3599.9,240.4,3599.9,240.4,3599.9,240.3L3599.9,240.3L3599.9,240.3
				L3599.9,240.3L3599.9,240.3c-0.9,0.9-0.9,2.2-0.2,3.1c0.1,0.1,0.1,0.2,0.2,0.2c0.1,0.1,0.2,0.2,0.3,0.2c0.8,0.6,1.9,0.6,2.7,0
				c0.1-0.1,0.2-0.2,0.3-0.3s0.2-0.2,0.3-0.3c0.6-0.8,0.6-1.9-0.1-2.8c-0.1-0.1-0.1-0.2-0.2-0.2c-0.1-0.1-0.2-0.2-0.3-0.3
				C3601.9,239.5,3600.7,239.6,3599.9,240.3z M3690.4,239.6v1.1c0,0.4,0,0.7,0,0.9c0,0.3,0,0.5,0,0.7v0.3h-1.3v-0.8
				c-0.3,0.3-0.6,0.6-1,0.7s-0.8,0.2-1.2,0.2c-0.3,0-0.7-0.1-1-0.2c-0.3-0.1-0.6-0.3-0.9-0.5c-0.3-0.2-0.5-0.5-0.7-0.8
				s-0.2-0.7-0.2-1.1c0-0.4,0.1-0.8,0.2-1.1c0.1-0.3,0.3-0.5,0.6-0.7c0.2-0.2,0.5-0.3,0.9-0.4c0.3-0.1,0.7-0.1,1.1-0.1
				c0.3,0,0.7,0,1.1,0.1c0.4,0.1,0.8,0.1,1.2,0.3v-0.1c0-0.1,0-0.1,0-0.2v-0.2c0-0.3-0.1-0.5-0.2-0.7c-0.1-0.2-0.2-0.4-0.4-0.5
				s-0.4-0.2-0.6-0.3c-0.2-0.1-0.4-0.1-0.6-0.1c-0.2,0-0.4,0-0.6,0.1c-0.2,0-0.4,0.1-0.6,0.2c-0.2,0.1-0.3,0.2-0.4,0.4
				c-0.1,0.2-0.2,0.4-0.2,0.6h-1.3c0-0.4,0.1-0.8,0.3-1.1s0.4-0.6,0.7-0.8s0.6-0.4,0.9-0.5c0.3-0.1,0.7-0.2,1.1-0.2
				c0.4,0,0.8,0.1,1.2,0.2c0.4,0.1,0.7,0.3,1,0.6s0.5,0.6,0.7,1s0.3,0.9,0.3,1.4v0.1L3690.4,239.6z M3673,238.3
				c0-0.5,0.1-0.9,0.3-1.3c0.2-0.4,0.4-0.7,0.7-1s0.7-0.5,1.1-0.7c0.4-0.2,0.9-0.2,1.4-0.2c0.6,0,1,0.1,1.5,0.4
				c0.3,0.2,0.6,0.5,0.8,0.8s0.3,0.7,0.3,1.1c0,0.4-0.1,0.9-0.4,1.2c-0.3,0.4-0.7,0.7-1.1,0.8c-0.4,0.1-0.9,0.2-1.4,0.2
				c-0.2,0-0.5,0-0.8,0s-0.6,0-0.8,0c-0.1,0-0.1,0-0.2,0c-0.1,0-0.1,0-0.2,0v0.1c0,0.6,0.2,1,0.6,1.3c0.4,0.3,0.9,0.4,1.4,0.4
				c0.3,0,0.6,0,0.8-0.1c0.2,0,0.5-0.1,0.7-0.2c0.2-0.1,0.4-0.2,0.6-0.3c0.2-0.1,0.4-0.2,0.6-0.4v1.4c-0.3,0.2-0.7,0.5-1.2,0.6
				c-0.5,0.2-1,0.3-1.6,0.3c-0.5,0-0.9-0.1-1.3-0.2c-0.4-0.1-0.7-0.3-1-0.6s-0.5-0.6-0.7-1s-0.3-0.8-0.3-1.3v-0.1L3673,238.3z
				 M3635.2,238.3c0-0.5,0.1-0.9,0.3-1.3c0.2-0.4,0.4-0.7,0.7-1s0.7-0.5,1.1-0.7c0.4-0.2,0.9-0.2,1.4-0.2c0.6,0,1,0.1,1.5,0.4
				c0.3,0.2,0.6,0.5,0.8,0.8s0.3,0.7,0.3,1.1c0,0.4-0.1,0.9-0.4,1.2c-0.3,0.4-0.7,0.7-1.1,0.8c-0.4,0.1-0.9,0.2-1.4,0.2
				c-0.2,0-0.5,0-0.8,0s-0.6,0-0.8,0c-0.1,0-0.1,0-0.2,0c-0.1,0-0.1,0-0.2,0v0.1c0,0.6,0.2,1,0.6,1.3c0.4,0.3,0.9,0.4,1.4,0.4
				c0.3,0,0.6,0,0.8-0.1c0.2,0,0.5-0.1,0.7-0.2c0.2-0.1,0.4-0.2,0.6-0.3c0.2-0.1,0.4-0.2,0.6-0.4v1.4c-0.3,0.2-0.7,0.5-1.2,0.6
				c-0.5,0.2-1,0.3-1.6,0.3c-0.5,0-0.9-0.1-1.3-0.2c-0.4-0.1-0.7-0.3-1-0.6s-0.5-0.6-0.7-1s-0.3-0.8-0.3-1.3v-0.1L3635.2,238.3z
				 M3629.8,240.2c-0.1,0.4-0.3,0.7-0.6,1c-0.2,0.3-0.5,0.6-0.8,0.8s-0.7,0.4-1.1,0.5c-0.4,0.1-0.8,0.2-1.2,0.2
				c-0.5,0-1-0.1-1.5-0.3s-0.9-0.5-1.2-0.8s-0.6-0.7-0.8-1.2s-0.3-1-0.3-1.5s0.1-1,0.3-1.5s0.5-0.9,0.8-1.2c0.3-0.4,0.8-0.6,1.2-0.8
				c0.5-0.2,1-0.3,1.5-0.3c0.4,0,0.8,0.1,1.2,0.2c0.4,0.1,0.7,0.3,1,0.5s0.6,0.5,0.8,0.8s0.4,0.7,0.6,1.1h-1.4
				c-0.2-0.4-0.5-0.7-0.9-1c-0.4-0.2-0.8-0.3-1.3-0.3c-0.3,0-0.6,0.1-0.9,0.2c-0.3,0.1-0.6,0.3-0.8,0.5s-0.4,0.5-0.6,0.8
				s-0.2,0.6-0.2,1c0,0.3,0.1,0.6,0.2,0.9c0.1,0.3,0.3,0.6,0.5,0.8s0.5,0.4,0.8,0.5s0.6,0.2,1,0.2s0.9-0.1,1.3-0.3
				c0.4-0.2,0.7-0.5,0.9-0.9h1.5V240.2z M3660.2,242.7c-0.5,0-1-0.1-1.5-0.3s-0.9-0.5-1.2-0.8c-0.4-0.3-0.6-0.8-0.8-1.2
				c-0.2-0.5-0.3-1-0.3-1.5s0.1-1,0.3-1.5s0.5-0.9,0.8-1.2c0.4-0.3,0.8-0.6,1.2-0.8c0.5-0.2,1-0.3,1.5-0.3s1,0.1,1.5,0.3
				s0.9,0.5,1.2,0.8s0.6,0.8,0.8,1.2c0.2,0.5,0.3,1,0.3,1.5s-0.1,1-0.3,1.5s-0.5,0.9-0.8,1.2s-0.8,0.6-1.2,0.8
				C3661.2,242.6,3660.7,242.7,3660.2,242.7z M3665.8,238.9c0-0.5,0.1-0.9,0.2-1.4c0.2-0.4,0.4-0.8,0.7-1.2s0.7-0.6,1.1-0.8
				c0.4-0.2,1-0.3,1.6-0.3c0.2,0,0.5,0,0.8,0.1c0.3,0,0.5,0.1,0.7,0.2v-2.2h1.3v8.9c-0.4,0.2-0.8,0.3-1.2,0.4
				c-0.4,0.1-0.8,0.1-1.2,0.1c-0.5,0-1-0.1-1.5-0.2c-0.5-0.2-0.9-0.4-1.3-0.7c-0.4-0.3-0.7-0.7-0.9-1.2
				C3665.9,240.1,3665.8,239.5,3665.8,238.9z M3641.9,238.9c0-0.5,0.1-0.9,0.2-1.4c0.2-0.4,0.4-0.8,0.7-1.2s0.7-0.6,1.1-0.8
				c0.4-0.2,1-0.3,1.6-0.3c0.2,0,0.5,0,0.8,0.1c0.3,0,0.5,0.1,0.7,0.2v-2.2h1.3v8.9c-0.4,0.2-0.8,0.3-1.2,0.4
				c-0.4,0.1-0.8,0.1-1.2,0.1c-0.5,0-1-0.1-1.5-0.2c-0.5-0.2-0.9-0.4-1.3-0.7c-0.4-0.3-0.7-0.7-0.9-1.2
				C3642,240.1,3641.9,239.5,3641.9,238.9z M3656,242.6c-0.4,0-0.8-0.1-1.1-0.2c-0.3-0.1-0.6-0.3-0.9-0.6c-0.2-0.2-0.4-0.5-0.6-0.8
				c-0.1-0.3-0.2-0.6-0.2-1v-3.5h-1.3v-1.2h1.3V233h1.3v2.3h1.5v1.2h-1.5v3.7c0,0.3,0.2,0.6,0.5,0.8s0.6,0.3,1,0.3V242.6z
				 M3635.1,236.4h-0.7c-0.3,0-0.6,0-0.9,0.1c-0.3,0.1-0.5,0.2-0.8,0.4c-0.2,0.2-0.4,0.4-0.5,0.7s-0.2,0.6-0.2,0.9v4h-1.3v-7.3h1.3
				v0.8c0.1-0.2,0.2-0.4,0.4-0.5s0.4-0.2,0.6-0.3c0.2-0.1,0.4-0.1,0.7-0.1c0.2,0,0.4,0,0.6,0h0.7L3635.1,236.4z M3651.2,242.6h-1.3
				v-7.2h1.3V242.6z M3682.1,233.5h1.3v9.1h-1.3V233.5z M3689,239.6c-0.1,0-0.2,0-0.3-0.1c-0.1,0-0.3-0.1-0.5-0.1s-0.4-0.1-0.6-0.1
				c-0.2,0-0.4-0.1-0.7-0.1c-0.2,0-0.3,0-0.5,0.1c-0.2,0-0.4,0.1-0.5,0.2c-0.2,0.1-0.3,0.2-0.4,0.3c-0.1,0.1-0.2,0.3-0.2,0.5
				s0,0.3,0.1,0.5c0.1,0.1,0.2,0.3,0.4,0.4c0.2,0.1,0.3,0.2,0.5,0.2c0.2,0.1,0.4,0.1,0.7,0.1s0.5,0,0.8-0.1c0.2-0.1,0.5-0.2,0.6-0.3
				c0.2-0.1,0.3-0.3,0.4-0.4c0.1-0.2,0.2-0.3,0.2-0.4V239.6z M3660.2,236.4c-0.3,0-0.7,0.1-1,0.2c-0.3,0.1-0.6,0.3-0.8,0.5
				s-0.4,0.5-0.5,0.8s-0.2,0.6-0.2,1c0,0.3,0.1,0.7,0.2,1c0.1,0.3,0.3,0.6,0.5,0.8s0.5,0.4,0.8,0.5s0.6,0.2,1,0.2
				c0.3,0,0.7-0.1,1-0.2c0.3-0.1,0.6-0.3,0.8-0.5s0.4-0.5,0.5-0.8s0.2-0.6,0.2-1c0-0.3-0.1-0.7-0.2-1c-0.1-0.3-0.3-0.6-0.5-0.8
				s-0.5-0.4-0.8-0.5C3660.9,236.5,3660.5,236.4,3660.2,236.4z M3643.2,239.1c0,0.4,0.1,0.7,0.3,1c0.1,0.3,0.3,0.5,0.6,0.7
				c0.2,0.2,0.5,0.3,0.8,0.4c0.3,0.1,0.6,0.1,0.9,0.1c0.2,0,0.4,0,0.7-0.1c0.2,0,0.4-0.1,0.6-0.2v-4.3c-0.1-0.1-0.3-0.1-0.6-0.2
				c-0.2,0-0.4-0.1-0.6-0.1c-0.8,0-1.5,0.2-2,0.6C3643.4,237.6,3643.2,238.2,3643.2,239.1z M3667.1,239.1c0,0.4,0.1,0.7,0.3,1
				c0.1,0.3,0.3,0.5,0.6,0.7c0.2,0.2,0.5,0.3,0.8,0.4c0.3,0.1,0.6,0.1,0.9,0.1c0.2,0,0.4,0,0.7-0.1c0.2,0,0.4-0.1,0.6-0.2v-4.3
				c-0.1-0.1-0.3-0.1-0.6-0.2c-0.2,0-0.4-0.1-0.6-0.1c-0.8,0-1.5,0.2-2,0.6C3667.3,237.6,3667.1,238.2,3667.1,239.1z M3676.7,236.4
				c-0.3,0-0.6,0-0.9,0.1c-0.3,0.1-0.5,0.2-0.7,0.3c-0.2,0.2-0.4,0.4-0.5,0.6c-0.1,0.2-0.2,0.5-0.3,0.8h0.8c0.2,0,0.4,0,0.6,0
				c0.2,0,0.5,0,0.7,0s0.4,0,0.6,0c0.2,0,0.4-0.1,0.5-0.1c0.1-0.1,0.3-0.2,0.4-0.3c0.1-0.1,0.1-0.3,0.1-0.5c0-0.3-0.1-0.6-0.4-0.7
				C3677.3,236.4,3677,236.4,3676.7,236.4z M3639,236.4c-0.3,0-0.6,0-0.9,0.1c-0.3,0.1-0.5,0.2-0.7,0.3c-0.2,0.2-0.4,0.4-0.5,0.6
				c-0.1,0.2-0.2,0.5-0.3,0.8h0.8c0.2,0,0.4,0,0.6,0c0.2,0,0.5,0,0.7,0s0.4,0,0.6,0c0.2,0,0.4-0.1,0.5-0.1c0.1-0.1,0.3-0.2,0.4-0.3
				c0.1-0.1,0.1-0.3,0.1-0.5c0-0.3-0.1-0.6-0.4-0.7C3639.6,236.4,3639.3,236.4,3639,236.4z M3638.8,234.6h1c0.4,0,0.7-0.3,0.7-0.7
				v-1c-0.4,0.1-0.8,0.3-1.1,0.6C3639.1,233.8,3638.9,234.2,3638.8,234.6z M3650.6,234.3c-0.2,0-0.4-0.1-0.5-0.2
				c-0.1-0.1-0.2-0.3-0.2-0.5s0.1-0.4,0.2-0.5c0.1-0.1,0.3-0.2,0.5-0.2s0.4,0.1,0.5,0.2c0.1,0.1,0.2,0.3,0.2,0.5s-0.1,0.4-0.2,0.5
				C3650.9,234.2,3650.8,234.3,3650.6,234.3z"/>
		</g>
	</g>
</g>
</svg>
