<?xml version="1.0" encoding="utf-8"?>
<!-- Generator: Adobe Illustrator 25.0.0, SVG Export Plug-In . SVG Version: 6.00 Build 0)  -->
<svg version="1.1" id="Capa_1" xmlns="http://www.w3.org/2000/svg" xmlns:xlink="http://www.w3.org/1999/xlink" x="0px" y="0px"
	 viewBox="0 0 134.6 32" style="enable-background:new 0 0 134.6 32;" xml:space="preserve">
<style type="text/css">
	.st0{fill:#0D40F2;}
	.st1{fill:#F5D912;}
</style>
<g>
	<g>
		<path class="st0" d="M36.1,15.7c-0.6-0.1-1.2-0.1-1.7-0.1c-3,0-5.5,1.4-5.5,6.1v9.7h-5.8V10.1h5.5v3.1c1.3-2.8,4.3-3.4,6.1-3.4
			c0.5,0,0.9,0,1.3,0.1v5.8C36,15.7,36.1,15.7,36.1,15.7z"/>
		<path class="st0" d="M57.7,25.2c-1,3.6-4.4,6.7-9.7,6.7c-5.8,0-11-4.1-11-11.4c0-6.8,5-11.2,10.5-11.2c6.6,0,10.5,4.1,10.5,11
			c0,0.8-0.1,1.7-0.1,1.8H42.7c0.1,2.8,2.5,4.9,5.4,4.9c2.7,0,4.1-1.3,4.9-3.2L57.7,25.2z M52.4,18.3c-0.1-2.1-1.4-4.1-4.8-4.1
			c-3,0-4.6,2.2-4.8,4.1H52.4z"/>
		<path class="st0" d="M80.8,27.5c0,1.4,0.1,3,0.1,3.9h-5.5c-0.1-0.4-0.3-1.4-0.3-2.5c-0.9,1.7-3.1,3-5.9,3
			c-6.1,0-10.3-4.8-10.3-11.2C58.8,14.5,63,9.5,69,9.5c3.6,0,5.4,1.5,6.1,2.6V0h5.7C80.8,0,80.8,27.5,80.8,27.5z M70.1,26.7
			c3,0,5.3-2.2,5.3-6.1c0-3.7-2.3-5.9-5.3-5.9s-5.3,2.2-5.3,5.9C64.8,24.4,67,26.7,70.1,26.7z"/>
		<g>
			<path class="st0" d="M86.3,10.7c1.9,0,3.5-1.5,3.5-3.5s-1.5-3.6-3.5-3.6s-3.5,1.5-3.5,3.6C82.7,9,84.4,10.7,86.3,10.7z"/>
			<polygon class="st0" points="83.5,14.7 83.5,28.4 83.5,31.4 89.2,31.4 89.2,28.4 89.2,14.7 89.2,11.7 83.5,11.7 			"/>
		</g>
		<path class="st0" d="M126.7,25.2c-1,3.6-4.4,6.7-9.7,6.7c-5.8,0-11-4.1-11-11.4c0-6.8,5-11.2,10.5-11.2c6.6,0,10.5,4.1,10.5,11
			c0,0.8-0.1,1.7-0.1,1.8h-15.1c0.1,2.8,2.5,4.9,5.4,4.9c2.7,0,4.1-1.3,4.9-3.2L126.7,25.2z M121.4,18.3c-0.1-2.1-1.4-4.1-4.8-4.1
			c-3,0-4.6,2.2-4.8,4.1H121.4z"/>
		<path class="st0" d="M128.8,31.4V0h5.8v31.2h-5.8V31.4z"/>
		<path class="st0" d="M104.4,16.8v-5.2h-4.1V9.9V3.7H100h-5.2h-0.4v4.6v3.4h-3v5.2h3c0,0.8,0,1.5,0,2.3c0,1.5,0,3.1,0,4.5
			c0,0.6,0,1.3,0,1.9c0,0.3,0,0.5,0,0.8c0,0.6,0.1,1.2,0.4,1.8c0.8,1.8,2.5,3,4.4,3.4c0.3,0,0.6,0.1,1,0.1c0.3,0,0.5,0,0.8,0
			c1.7,0,2.7-0.3,3.2-0.5v-4.9c-0.3,0.1-1,0.1-1.8,0.1c-0.6,0-1.3-0.1-1.8-0.5c-0.4-0.4-0.5-0.9-0.5-1.4c0-0.8,0-1.5,0-2.2
			c0-0.4,0-5.7,0-5.7C100.3,16.8,104.4,16.8,104.4,16.8z"/>
		<path class="st1" d="M16.3,23.1c-0.5,1.7-1.9,3.6-4.9,3.6S6,24.5,6,20.6s2.5-5.9,5.4-5.9c2.8,0,4.3,1.8,4.8,3.6l5.2-1.7
			c-0.1-0.4-0.3-0.8-0.4-1.2c-1.9-3.4-5.5-5.7-9.8-5.7c-4.5,0-8.4,2.7-10.2,6.5c-0.6,1.5-1,2.9-1,4.6c0,4.3,2.1,7.7,5.3,9.7
			c0.1,0.1,0.3,0.1,0.4,0.3l0,0C7.2,31.6,9,32,11,32c4.3,0,7.9-2.3,9.8-5.8c0.3-0.4,0.4-0.9,0.5-1.4L16.3,23.1z"/>
	</g>
</g>
</svg>
