<?xml version="1.0" encoding="utf-8"?>
<!-- Generator: Adobe Illustrator 25.0.0, SVG Export Plug-In . SVG Version: 6.00 Build 0)  -->
<svg version="1.1" id="Capa_1" xmlns="http://www.w3.org/2000/svg" xmlns:xlink="http://www.w3.org/1999/xlink" x="0px" y="0px"
	 viewBox="0 0 12 12" style="enable-background:new 0 0 12 12;" xml:space="preserve">
<style type="text/css">
	.st0{fill:#425466;}
</style>
<g>
	<g>
		<path class="st0" d="M6,11.2c-2.9,0-5.2-2.4-5.2-5.2S3.1,0.8,6,0.8s5.2,2.4,5.2,5.2S8.9,11.2,6,11.2z M6,12c3.3,0,6-2.7,6-6
			S9.3,0,6,0S0,2.7,0,6S2.7,12,6,12z"/>
		<path class="st0" d="M6.7,4.9L5,5.2L4.9,5.4l0.3,0.1c0.2,0.1,0.3,0.1,0.2,0.4L4.9,8.5c-0.1,0.7,0.1,1,0.6,1c0.4,0,0.9-0.2,1.1-0.4
			l0.1-0.3C6.5,8.8,6.3,8.9,6.2,8.9C6,8.9,5.9,8.7,5.9,8.5L6.7,4.9z M6.8,3.4c0,0.4-0.3,0.8-0.8,0.8c-0.4,0-0.8-0.3-0.8-0.8
			S5.6,2.6,6,2.6C6.4,2.6,6.8,3,6.8,3.4z"/>
	</g>
</g>
</svg>
