<?xml version="1.0" encoding="utf-8"?>
<!-- Generator: Adobe Illustrator 25.0.0, SVG Export Plug-In . SVG Version: 6.00 Build 0)  -->
<svg version="1.1" id="Capa_1" xmlns="http://www.w3.org/2000/svg" xmlns:xlink="http://www.w3.org/1999/xlink" x="0px" y="0px"
	 viewBox="0 0 70.6 18.5" style="enable-background:new 0 0 70.6 18.5;" xml:space="preserve">
<style type="text/css">
	.st0{fill:#0A0080;}
	.st1{fill:#00BCFF;}
	.st2{fill:#FFFFFF;}
</style>
<path class="st0" d="M69.9,2.9c-1.2-1.2-3.1-1.2-4.2,0c-0.9,1.2-0.9,2.9,0,4.2c1.2,1.2,3.1,1.2,4.2,0C70.8,5.8,70.8,4.1,69.9,2.9z
	 M68.7,6.2c-0.5,0.5-1.3,0.6-1.8,0.1c0,0-0.1-0.1-0.1-0.1c-0.5-0.8-0.5-1.8,0-2.6c0.5-0.5,1.3-0.6,1.8-0.1c0,0,0.1,0.1,0.1,0.1
	C69.2,4.5,69.2,5.4,68.7,6.2L68.7,6.2z M58,2.4C57.4,2.1,56.9,2,56.3,2c-0.7-0.1-1.5,0.2-2,0.7c-0.3,0.4-0.4,0.8-0.4,1.2h1.4
	c0-0.2,0.1-0.4,0.2-0.5c0.2-0.2,0.5-0.3,0.7-0.3c0.2,0,0.5,0,0.7,0.1c0.2,0.1,0.3,0.3,0.2,0.5c0,0.2-0.1,0.4-0.3,0.4
	c-0.2,0.1-0.4,0.1-0.6,0.1l-0.5,0.1c-0.4,0-0.9,0.2-1.3,0.4C54,5,53.7,5.6,53.8,6.2c0,0.5,0.2,0.9,0.5,1.2c0.4,0.3,0.8,0.4,1.3,0.4
	c3.2,0.1,3.1-1.7,3.2-2V3.8C58.7,3.2,58.5,2.6,58,2.4z M57.2,5.5c0,0.4-0.1,0.8-0.4,1c-0.3,0.2-0.6,0.3-0.9,0.3
	c-0.2,0-0.4-0.1-0.5-0.2c-0.2-0.1-0.2-0.3-0.2-0.6c0-0.2,0.1-0.5,0.3-0.6c0.2-0.1,0.4-0.2,0.7-0.2l0.3-0.1c0.1,0,0.3-0.1,0.4-0.1
	C57,5.1,57.1,5,57.2,5L57.2,5.5L57.2,5.5z M50.7,3.3c0.3,0,0.6,0.1,0.8,0.3c0.1,0.2,0.2,0.4,0.2,0.6h1.6c0-0.6-0.3-1.3-0.8-1.7
	C52,2.2,51.3,2,50.7,2c-0.8,0-1.5,0.2-2,0.8C48.2,3.4,47.9,4.2,48,5c0,0.7,0.2,1.5,0.7,2c0.5,0.6,1.3,0.9,2.1,0.8
	c0.8,0.1,1.6-0.3,2.1-1c0.3-0.4,0.5-0.8,0.5-1.2h-1.6c0,0.3-0.1,0.5-0.3,0.7c-0.2,0.2-0.5,0.3-0.8,0.3c-0.5,0-0.9-0.3-1-0.7
	c-0.1-0.3-0.2-0.6-0.2-1c0-0.3,0-0.7,0.2-1C49.8,3.5,50.3,3.2,50.7,3.3z M47.5,2c-3.2,0-3,2.8-3,2.8v2.9H46V5.1c0-0.3,0-0.7,0.2-1
	c0.2-0.4,0.7-0.6,1.2-0.6h0.2h0.2V2L47.5,2L47.5,2L47.5,2z M42.2,6.3c-0.1,0.1-0.1,0.2-0.2,0.2c-0.2,0.2-0.5,0.2-0.8,0.2
	c-0.3,0-0.5,0-0.8-0.2c-0.4-0.3-0.6-0.7-0.6-1.2h4c0-0.4,0-0.7,0-1.1c-0.1-0.4-0.2-0.8-0.4-1.1c-0.2-0.4-0.6-0.6-1-0.8
	C42,2.1,41.5,2,41.1,2c-0.7,0-1.4,0.2-2,0.8c-0.5,0.6-0.8,1.4-0.8,2.2c-0.1,0.8,0.2,1.6,0.8,2.2c0.6,0.4,1.2,0.7,2,0.7
	c0.8,0,1.5-0.2,2.1-0.8c0.2-0.2,0.4-0.5,0.5-0.8L42.2,6.3L42.2,6.3z M40.2,3.5c0.2-0.2,0.5-0.3,0.9-0.3c0.3,0,0.6,0.1,0.9,0.3
	c0.2,0.2,0.4,0.5,0.4,0.9h-2.5C39.9,4.1,40,3.8,40.2,3.5L40.2,3.5z M37.8,7.8h-1.3V4.4c0.1-0.5-0.3-1-0.8-1c0,0-0.1,0-0.2,0
	c-0.5,0-1,0.4-1,1c0,0,0,0.1,0,0.1v3.3h-1.3V4.4c0.1-0.5-0.3-1-0.8-1c0,0-0.1,0-0.2,0c-0.5,0-1,0.4-1,0.9c0,0,0,0.1,0,0.1v3.3h-1.3
	V4.4C29.7,3.2,30.7,2.1,32,2c0.1,0,0.1,0,0.2,0c0.6,0,1.3,0.3,1.7,0.8c0.4-0.5,1-0.8,1.7-0.8c1.4,0,2.3,1,2.3,2.4L37.8,7.8L37.8,7.8
	L37.8,7.8z M64.5,0.3c0,0-1.5-0.2-1.5,1v1.6c-0.2-0.3-0.4-0.5-0.6-0.6c-0.3-0.2-0.6-0.2-0.9-0.2c-0.7,0-1.3,0.3-1.7,0.8
	c-0.5,0.7-0.7,1.5-0.6,2.3c0,0.7,0.2,1.4,0.7,2c0.6,0.5,1.3,0.8,2.1,0.8c2.7,0,2.6-2.3,2.6-2.3L64.5,0.3L64.5,0.3z M62.8,6.3
	c-0.2,0.3-0.6,0.5-0.9,0.5c-0.4,0-0.7-0.2-0.9-0.5c-0.2-0.4-0.3-0.8-0.3-1.3c0-0.4,0.1-0.8,0.3-1.2c0.2-0.3,0.6-0.5,0.9-0.5
	c0.3,0,0.5,0.1,0.7,0.3c0.4,0.4,0.6,0.9,0.5,1.5C63.1,5.5,63,5.9,62.8,6.3L62.8,6.3L62.8,6.3z M31.3,17c0,0.2-0.1,0.4-0.2,0.5
	c-0.1,0.1-0.3,0.2-0.5,0.2h-0.7v-5.1c-0.1-0.8,0.3-1.5,0.9-2c0.6-0.4,1.2-0.6,1.9-0.6c0.7,0,1.4,0.3,1.9,0.8
	c0.5,0.6,0.7,1.3,0.7,2.1c0,0.8-0.2,1.5-0.6,2.2c-0.4,0.5-1,0.8-1.7,0.8c-0.3,0-0.6-0.1-0.9-0.2c-0.3-0.1-0.5-0.4-0.7-0.7L31.3,17
	L31.3,17z M33.7,13.1c0-0.4-0.1-0.9-0.3-1.3c-0.2-0.3-0.6-0.5-0.9-0.4c-0.4,0-0.7,0.2-0.9,0.4c-0.2,0.4-0.3,0.8-0.3,1.3
	c0,0.4,0.1,0.8,0.3,1.2c0.2,0.3,0.6,0.5,0.9,0.4c0.4,0,0.7-0.2,0.9-0.4C33.7,13.9,33.8,13.5,33.7,13.1 M44.9,15.5v-0.4
	c-0.2,0.4-0.6,0.6-1,0.7c-0.4,0.1-0.9,0.1-1.3-0.1c-0.5-0.2-0.8-0.5-1.1-0.9C41.1,14.3,41,13.6,41,13c0-0.8,0.2-1.5,0.6-2.1
	c0.5-0.6,1.2-0.9,1.9-0.8c0.7-0.1,1.3,0.1,1.9,0.6c0.6,0.5,0.9,1.2,0.9,2v3c0,1.4-1,2.5-2.4,2.6c-0.1,0-0.2,0-0.3,0
	c-1.1,0-2.1-0.7-2.4-1.8h1.5c0.2,0.4,0.7,0.6,1.2,0.6c0.2-0.1,0.5-0.2,0.6-0.4C44.7,16.2,44.8,15.9,44.9,15.5 M42.4,13.1
	c0,1,0.3,1.5,0.8,1.6c0.5,0.1,0.9,0,1.2-0.4c0.2-0.2,0.2-0.5,0.3-0.7c0-0.3,0-0.7,0-1c0-0.3-0.2-0.6-0.4-0.9
	c-0.2-0.3-0.5-0.4-0.8-0.4c-0.4,0-0.8,0.2-1,0.6C42.5,12.3,42.4,12.7,42.4,13.1 M39.8,10.5c-0.5-0.2-1.1-0.4-1.6-0.4
	c-0.7-0.1-1.5,0.2-2,0.7c-0.3,0.4-0.4,0.8-0.4,1.2h1.4c0-0.2,0.1-0.4,0.2-0.5c0.2-0.2,0.5-0.3,0.7-0.3c0.2,0,0.5,0,0.7,0.1
	c0.2,0.1,0.3,0.3,0.2,0.5c0,0.2-0.1,0.4-0.3,0.4c-0.2,0.1-0.4,0.1-0.6,0.1l-0.5,0.1c-0.4,0-0.9,0.2-1.3,0.4
	c-0.5,0.3-0.8,0.9-0.8,1.5c0,0.5,0.2,0.9,0.5,1.2c0.4,0.3,0.8,0.4,1.3,0.4c3.2,0.1,3.1-1.7,3.2-2v-2.1
	C40.6,11.3,40.3,10.8,39.8,10.5 M39.1,13.7c0,0.4-0.1,0.8-0.4,1c-0.3,0.2-0.6,0.3-0.9,0.3c-0.2,0-0.4-0.1-0.5-0.2
	c-0.2-0.1-0.2-0.3-0.2-0.6c0-0.2,0.1-0.5,0.3-0.6c0.2-0.1,0.4-0.2,0.7-0.2l0.3-0.1c0.1,0,0.3-0.1,0.4-0.1c0.1,0,0.2-0.1,0.3-0.1
	L39.1,13.7L39.1,13.7z M51.8,11c-1.2-1.2-3.1-1.2-4.2,0c-0.9,1.2-0.9,2.9,0,4.2c1.2,1.2,3.1,1.2,4.2,0C52.7,13.9,52.7,12.2,51.8,11
	 M50.6,14.3c-0.5,0.5-1.3,0.6-1.8,0.1c0,0-0.1-0.1-0.1-0.1c-0.5-0.8-0.5-1.8,0-2.6c0.5-0.5,1.3-0.6,1.8-0.1c0,0,0.1,0.1,0.1,0.1
	C51.1,12.5,51.1,13.5,50.6,14.3"/>
<path class="st1" d="M25.6,9.3c0,4.7-5.7,8.4-12.7,8.4S0.2,14,0.2,9.3s5.7-8.4,12.7-8.4C19.9,0.9,25.6,4.7,25.6,9.3L25.6,9.3z"/>
<path class="st2" d="M25.4,9c-3.5-0.6-7.8,1.3-8.3,1.5l-0.3,0.1l0.1-0.3c0.2-0.6,0.3-2.1,0.2-3.3c-0.1-1.2,0.4-2.3,0.6-2.8l0-0.1
	c0.2-0.4,0.4-0.4,0.6-0.4c0.1,0,0.2,0,0.2,0c0.4,0,0.8-0.2,1.1-0.3c0.2-0.1,0.3-0.2,0.5-0.2c0.1,0,0.2,0,0.3-0.1
	c0.1,0,0.2-0.1,0.4-0.1c0.4,0,0.8-0.1,0.8-0.4c0,0,0-0.1-0.1-0.2c-0.1,0-0.2-0.1-0.6,0h0c-0.2,0-0.5,0.1-0.2-0.2c0,0,0,0,0,0
	c0.1-0.1,0.2-0.3,0.3-0.4c0,0,0.1-0.1,0-0.2c0-0.2-0.4-0.5-0.8-0.7c-0.1,0-0.2-0.1-0.2-0.2c-0.2-0.2-0.7-0.5-0.9-0.3
	c-0.3,0.2-1.4,1.3-2,2c-0.6,0.7-1.1,1.4-1.5,2.2L15.6,5c-0.4,0.8-0.9,2.1-1.5,3.4L13.9,9c0,0.1,0,0.1-0.1,0.2
	c-0.5,1.1-1.1,2.5-0.7,3.2c0.2,0.3,0.6,0.5,1.2,0.6c3.8,0.3,4.7,0.2,6.9,0c0.4,0,0.8-0.1,1.2-0.2c0.2,0,0.3-0.1,0.5-0.1
	c0.1,0,0.2,0,0.3,0c0.2,0.1,0.3,0.2,0.4,0.4l0.1,0.1l0.1-0.1c0.7-0.8,1.2-1.6,1.5-2.5c0.1-0.5,0.2-1,0.2-1.3L25.4,9L25.4,9L25.4,9z
	 M11.7,9c-0.1-0.2-0.2-0.4-0.2-0.6C10.9,7,10.3,5.8,9.9,4.9L9.8,4.6C9.3,3.7,8.9,3,8.3,2.4c-0.6-0.7-1.7-1.8-2-2
	C6,0.2,5.6,0.6,5.4,0.7c-0.1,0-0.2,0.1-0.2,0.2C4.8,1.1,4.4,1.3,4.3,1.6c0,0.1,0,0.2,0,0.2c0,0.1,0.1,0.2,0.2,0.3c0,0,0.1,0,0.1,0.1
	h0C5.1,2.4,5,2.5,5,2.5C4.8,2.4,4.7,2.4,4.6,2.4h0C4.2,2.3,4,2.3,4,2.4c-0.1,0-0.1,0.1-0.1,0.2c0,0.3,0.4,0.4,0.8,0.4
	C4.8,3,4.9,3,5,3.1c0.1,0,0.2,0.1,0.3,0.1c0.2,0,0.4,0.1,0.5,0.2C6.2,3.5,6.7,3.7,7,3.6c0.1,0,0.2,0,0.2,0c0.2,0,0.4,0,0.6,0.4
	l0,0.1c0.2,0.5,0.6,1.7,0.6,2.8c-0.1,1.2,0,2.7,0.2,3.3l0.1,0.3l-0.3-0.1c-0.4-0.2-4.6-2-8-1.5H0.4v0.6c0.1,1.1,0.6,2.3,1.5,3.3
	L2,12.9l0.1-0.1c0.1-0.1,0.2-0.2,0.3-0.2c0.3-0.1,0.4,0,0.8,0c0.4,0.1,0.8,0.2,1.2,0.2C5.6,13,6.4,13,7.5,13c0.9,0,2.1-0.1,3.8-0.2
	c0.6,0,1-0.2,1.2-0.6C12.9,11.5,12.3,10.2,11.7,9C11.7,9.1,11.7,9,11.7,9L11.7,9z"/>
<path class="st0" d="M23.3,13.4c-0.1,0-0.1,0.1-0.2,0.2l0,0c-0.1,0-0.1,0.1-0.2,0.2c-0.1,0.1-0.2,0.1-0.2,0.2
	c-0.1,0-0.2,0.1-0.2,0.2l0,0c-0.1,0-0.2,0.1-0.2,0.2c0,0,0,0,0,0c-0.1,0-0.2,0.1-0.2,0.2c-0.1,0-0.2,0.1-0.2,0.2l0,0l-0.2,0.1
	c0,0,0,0,0,0c-0.2,0.1-0.4,0.2-0.6,0.3c0,0,0,0,0,0l-0.2,0.1c0,0,0,0,0,0c-0.2,0.1-0.4,0.2-0.6,0.3c0,0,0,0-0.1,0
	c-0.1,0-0.2,0.1-0.2,0.1c0,0,0,0-0.1,0c-0.1,0-0.2,0.1-0.3,0.1c-0.1,0-0.2,0.1-0.3,0.1c0,0,0,0-0.1,0c-0.1,0-0.2,0-0.2,0.1
	c0,0,0,0-0.1,0c-0.1,0-0.2,0-0.3,0.1h0c-0.1,0-0.2,0.1-0.3,0.1c0,0,0,0-0.1,0c-0.1,0-0.2,0-0.3,0.1c0,0-0.1,0-0.1,0
	c-0.1,0-0.2,0-0.3,0.1h-0.1c-0.1,0-0.2,0-0.4,0.1h-0.1c-0.1,0-0.2,0-0.3,0c0,0-0.1,0-0.1,0c-0.1,0-0.2,0-0.3,0h-0.1
	c-0.1,0-0.2,0-0.4,0h-0.1c-0.1,0-0.2,0-0.3,0h-0.1c-0.1,0-0.2,0-0.3,0h-0.1c-0.1,0-0.2,0-0.4,0h-2.2c-0.1,0-0.2,0-0.4,0h0
	c-0.1,0-0.2,0-0.4,0H11c-0.1,0-0.2,0-0.3,0h-0.1c-0.1,0-0.2,0-0.4,0h0c-0.1,0-0.2,0-0.3,0H9.8c-0.1,0-0.2,0-0.3,0H9.4
	c-0.1,0-0.2,0-0.4-0.1h0c-0.1,0-0.2,0-0.3-0.1c0,0-0.1,0-0.1,0c-0.1,0-0.2,0-0.2-0.1c0,0,0,0-0.1,0c-0.1,0-0.2,0-0.3-0.1H7.9
	c-0.1,0-0.2,0-0.3-0.1c0,0-0.1,0-0.1,0c-0.1,0-0.2,0-0.2-0.1c0,0,0,0-0.1,0c-0.1,0-0.2-0.1-0.3-0.1c0,0,0,0-0.1,0
	c-0.1,0-0.2-0.1-0.2-0.1c0,0-0.1,0-0.1,0c-0.1,0-0.2-0.1-0.2-0.1c0,0,0,0-0.1,0c-0.1,0-0.2-0.1-0.3-0.1c0,0,0,0-0.1,0l-0.2-0.1
	c0,0,0,0-0.1,0l-0.2-0.1c0,0,0,0,0,0c-0.1,0-0.2-0.1-0.3-0.2c0,0,0,0-0.1,0c-0.1,0-0.2-0.1-0.2-0.1c0,0,0,0-0.1,0l-0.2-0.1
	c0,0,0,0,0,0c-0.1,0-0.2-0.1-0.2-0.2c0,0,0,0-0.1,0c-0.1,0-0.1-0.1-0.2-0.1c0,0,0,0-0.1,0c-0.1,0-0.2-0.1-0.2-0.2c0,0,0,0,0,0
	c-0.1,0-0.2-0.1-0.2-0.2c0,0,0,0,0,0c0,0-0.1-0.1-0.2-0.2c0,0,0,0-0.1,0c-0.1,0-0.1-0.1-0.2-0.2c-0.1-0.1-0.2-0.1-0.2-0.2
	c0,0,0,0,0,0l-0.2-0.2l0,0C2.2,13.1,2.2,13,2.3,13c0.2-0.1,0.2,0,0.6,0c0.4,0.1,0.8,0.2,1.2,0.2c2.2,0.3,3.2,0.4,7,0
	c0.7-0.1,1.2-0.3,1.5-0.8c0,0,0-0.1,0.1-0.2c0,0,0,0.1,0.1,0.2c0.2,0.4,0.8,0.7,1.5,0.8c3.8,0.3,4.8,0.2,6.9,0
	c0.4,0,0.8-0.1,1.2-0.2c0.4-0.1,0.4-0.1,0.6,0c0.1,0,0.1,0.1,0.2,0.3C23.4,13.4,23.4,13.4,23.3,13.4C23.3,13.4,23.3,13.4,23.3,13.4
	L23.3,13.4z M23.7,5.1L23.7,5.1c0.2,0.2,0.2,0.2,0.3,0.3c0,0,0,0,0,0.1c0,0,0.1,0.1,0.1,0.1c0,0,0,0,0,0.1c0,0,0.1,0.1,0.1,0.1
	c0,0,0,0,0,0.1c0.1,0.2,0.2,0.3,0.3,0.4c0,0,0,0,0,0.1c0,0,0,0.1,0.1,0.1c0,0,0,0,0,0.1c0,0,0,0.1,0.1,0.1c0,0,0,0,0,0.1
	c0,0.1,0.1,0.2,0.1,0.3c0,0,0,0,0,0c0,0,0,0.1,0,0.1c0,0,0,0.1,0,0.1c0,0,0,0.1,0,0.1s0,0.1,0,0.1c0,0,0,0.1,0,0.1s0,0.1,0,0.1
	c0,0.1,0,0.2,0,0.2c0,0,0,0.1,0,0.1c0,0,0,0.1,0,0.1v0.2c-1.1-0.2-2.9-0.2-5.4,0.5c-0.9,0.4-1.7,0.6-2.5,1c0.2-0.8,0.2-2.1,0.1-3
	c-0.1-1,0.3-2.1,0.6-2.7l0-0.1c0-0.1,0-0.2,0.1-0.2h0.1c0.1,0,0.2,0,0.3,0c0.5,0,1.1-0.3,1.3-0.4c0.1-0.1,0.3-0.1,0.4-0.2
	c0.1,0,0.2-0.1,0.4-0.1c0.1,0,0.2,0,0.3,0s0.3,0,0.4-0.1C22.3,3.8,23.1,4.5,23.7,5.1L23.7,5.1z M19.4,0.5c0.1-0.1,0.4,0,0.8,0.3
	c0.1,0.1,0.2,0.1,0.2,0.2c0.2,0.2,0.7,0.4,0.8,0.6c0,0,0,0.1,0,0.1v0c-0.1,0.1-0.2,0.3-0.3,0.4l-0.1,0.1c-0.2,0.2-0.4,0.3-0.5,0.3
	c-0.2,0-0.4-0.1-0.6-0.2C19.8,1.9,20,2,20.3,2.2c0-0.1,0-0.1,0-0.2l0.2-0.1l-0.3,0c0-0.2,0-0.4,0-0.6c-0.1,0.1-0.1,0.2-0.1,0.3
	c0,0.1-0.1,0.2-0.2,0.2l-0.2-0.2c-0.1-0.1-0.2-0.2-0.3-0.2c0,0,0,0,0,0c0.3,0.4,0.3,0.5,0,0.8c-0.3,0.3-0.6,0.6-0.8,0.8
	c0.2,0.1,0.4,0,0.7-0.2c0.4-0.4,0.4-0.4,0.8-0.2l0.1,0c0.2,0.1,0.3,0,0.5-0.1c0.1,0,0.3-0.1,0.4-0.1h0c0.3,0,0.4,0,0.5,0
	c0,0,0,0,0,0.1c0,0.2-0.2,0.3-0.7,0.3c-0.1,0-0.2,0-0.4,0.1c-0.1,0-0.2,0.1-0.3,0.1c-0.2,0-0.4,0.1-0.5,0.2c-0.3,0.2-0.7,0.3-1,0.3
	c-0.1,0-0.2,0-0.2,0c-0.3,0-0.5,0-0.7,0.5l0,0.1c-0.2,0.6-0.6,1.7-0.6,2.9c0.1,1.2,0,2.8-0.2,3.3l-0.3,0.5l0.5-0.2
	c0,0,4.6-2.1,8.2-1.5v0.2c0,0.3-0.1,0.8-0.2,1.3c-0.2,0.9-0.7,1.7-1.4,2.5c-0.1-0.2-0.2-0.3-0.4-0.4c-0.1,0-0.2-0.1-0.4-0.1
	c-0.2,0-0.4,0-0.5,0.1c-0.4,0.1-0.8,0.2-1.2,0.2c-2.1,0.3-3.1,0.4-6.9,0c-0.6,0-0.9-0.2-1.1-0.5c-0.4-0.7,0.2-2,0.7-3.1
	c0.1-0.3,0.2-0.6,0.4-0.8c0.6-1.5,1.2-2.8,1.6-3.6l0.1-0.2c0.4-0.9,0.9-1.6,1.4-2.2C18,1.8,19.1,0.7,19.4,0.5L19.4,0.5z M12.9,1.2
	c1.6,0,3.2,0.2,4.5,0.6C17.3,1.9,17.2,2,17,2.2c-0.6,0.7-1.1,1.5-1.5,2.3l-0.1,0.2c-0.4,0.8-1,2.1-1.6,3.6c-0.1,0.2-0.2,0.5-0.3,0.8
	c-0.3,0.6-0.6,1.3-0.7,1.9c-0.2-0.6-0.5-1.3-0.7-1.9l-0.3-0.8c-0.6-1.5-1.2-2.8-1.6-3.6l-0.1-0.2c-0.4-1-0.9-1.7-1.5-2.3
	C8.5,2.1,8.4,2,8.3,1.8C9.7,1.4,11.2,1.2,12.9,1.2L12.9,1.2z M4,2.5c0,0,0.2,0,0.5,0h0.1L5,2.6c0.2,0.1,0.3,0.2,0.5,0.1
	c0,0,0.1,0,0.1,0C6,2.6,6,2.6,6.4,2.9c0.3,0.3,0.5,0.4,0.7,0.2C6.9,2.9,6.5,2.6,6.3,2.3C6,2,6,1.8,6.3,1.5c0,0,0,0,0,0
	C6.1,1.5,6,1.5,5.9,1.6L5.8,1.8C5.7,1.7,5.6,1.7,5.6,1.6c0-0.1,0-0.2-0.1-0.3c0,0.2,0,0.4,0,0.6L5.2,1.9L5.4,2l0,0.2
	C5.7,2,5.9,1.9,6,2.4C5.8,2.5,5.6,2.5,5.4,2.6c-0.1,0-0.3-0.2-0.5-0.3c0,0,0,0,0,0L4.7,2.1C4.6,2,4.6,1.9,4.5,1.8v0c0,0,0-0.1,0-0.1
	C4.5,1.5,5,1.2,5.3,1c0.1,0,0.2-0.1,0.2-0.2c0.3-0.3,0.6-0.4,0.8-0.3c0.3,0.2,1.3,1.3,2,2c0.5,0.6,1,1.3,1.4,2.2l0.1,0.2
	c0.4,0.8,1,2.1,1.6,3.6c0.1,0.2,0.2,0.5,0.4,0.8c0.5,1.1,1.1,2.4,0.7,3.1c-0.2,0.3-0.6,0.5-1.1,0.5c-3.8,0.3-4.7,0.2-6.9,0
	c-0.4,0-0.8-0.1-1.2-0.2c-0.4-0.1-0.6-0.1-0.9,0c-0.2,0-0.2,0.2-0.3,0.3c-0.8-1-1.3-2.1-1.5-3.2V9.2c3.6-0.6,8,1.4,8,1.5l0.5,0.2
	l-0.2-0.5C8.7,9.8,8.6,8.3,8.7,7.1S8.3,4.8,8.1,4.2l0-0.1C7.8,3.6,7.6,3.6,7.3,3.6c-0.1,0-0.2,0-0.2,0c-0.3,0-0.8-0.2-1-0.3
	C5.9,3.3,5.7,3.2,5.5,3.1c-0.1,0-0.2,0-0.3-0.1C5.1,3,5,3,4.8,3C4.3,2.9,4.1,2.8,4.1,2.6C4,2.6,4,2.5,4,2.5L4,2.5z M4.4,3.3
	c0.1,0,0.2,0,0.3,0s0.2,0,0.3,0c0.1,0,0.2,0.1,0.4,0.1c0.2,0,0.3,0.1,0.4,0.2C5.9,3.8,6.5,4.1,7.1,4c0.1,0,0.2,0,0.3,0h0.1
	c0,0,0,0,0.1,0.2l0,0.1C7.8,4.9,8.3,5.9,8.2,7c-0.1,0.9,0,2.2,0.1,3C7.1,9.4,3.6,8.2,0.6,8.7c0-0.3,0.1-0.6,0.2-0.9v0
	c0,0,0-0.1,0-0.1s0-0.1,0-0.1v0C0.9,7.2,1,6.9,1.1,6.7c0,0,0,0,0,0c0,0,0,0,0,0c0,0,0-0.1,0.1-0.1C1.9,5.3,3,4.2,4.4,3.3L4.4,3.3z
	 M21.9,3c0.1-0.1,0.2-0.2,0.2-0.4c0-0.2-0.1-0.3-0.2-0.4c-0.1-0.1-0.2-0.1-0.4-0.1c0,0,0,0,0,0c0.1-0.1,0.1-0.3,0.1-0.4
	c-0.1-0.4-0.6-0.7-1-1c-0.1,0-0.2-0.1-0.2-0.1c-0.7-0.6-1.1-0.5-1.3-0.4c-0.2,0.2-0.7,0.6-1.2,1.2c-1.5-0.4-3.2-0.6-5-0.6
	c-1.8,0-3.6,0.2-5.1,0.7c-0.5-0.5-1-1-1.3-1.2C6.4,0,5.9-0.2,5.2,0.5c0,0-0.1,0.1-0.2,0.1c-0.4,0.2-0.9,0.5-1,1c0,0.2,0,0.3,0.1,0.4
	c0,0,0,0,0,0c-0.2,0-0.3,0-0.4,0.1C3.7,2.3,3.6,2.4,3.6,2.6c0,0.2,0.1,0.4,0.2,0.5C1.5,4.6,0,6.8,0,9.1v0.5c0,4.9,5,8.9,12.9,8.9
	c7.9,0,12.9-4,12.9-8.9V9.1C25.8,6.7,24.3,4.6,21.9,3L21.9,3z"/>
</svg>
